HIERARCHY
ROOT Hips
{
	OFFSET -14.64140 90.27770 -84.91600
	CHANNELS 6 Xposition Yposition Zposition Zrotation Xrotation Yrotation
	JOINT Spine
	{
		OFFSET 0.00000 13.20850 -1.60436
		CHANNELS 3 Zrotation Xrotation Yrotation
		JOINT Spine1
		{
			OFFSET 0.00000 8.61716 0.00000
			CHANNELS 3 Zrotation Xrotation Yrotation
			JOINT Spine2
			{
				OFFSET 0.00000 8.61717 0.00000
				CHANNELS 3 Zrotation Xrotation Yrotation
				JOINT Spine3
				{
					OFFSET 0.00000 8.61717 0.00000
					CHANNELS 3 Zrotation Xrotation Yrotation
					JOINT Neck
					{
						OFFSET 0.00000 11.07920 1.10792
						CHANNELS 3 Zrotation Xrotation Yrotation
						JOINT Neck1
						{
							OFFSET 0.00000 7.08032 0.00000
							CHANNELS 3 Zrotation Xrotation Yrotation
							JOINT Head
							{
								OFFSET 0.00000 7.08031 0.00000
								CHANNELS 3 Zrotation Xrotation Yrotation
								End site
								{
									OFFSET 0.00000 0.00000 0.00000
								}
							}
						}
					}
					JOINT RightShoulder
					{
						OFFSET -0.01000 7.91373 5.19711
						CHANNELS 3 Zrotation Xrotation Yrotation
						JOINT RightArm
						{
							OFFSET -18.41580 0.00000 0.00000
							CHANNELS 3 Zrotation Xrotation Yrotation
							JOINT RightForeArm
							{
								OFFSET -29.11090 0.00000 0.00000
								CHANNELS 3 Zrotation Xrotation Yrotation
								JOINT RightHand
								{
									OFFSET -24.65040 0.00000 0.00000
									CHANNELS 3 Zrotation Xrotation Yrotation
									JOINT RightHandThumb1
									{
										OFFSET -5.35114 -0.85590 3.97906
										CHANNELS 3 Zrotation Xrotation Yrotation
										JOINT RightHandThumb2
										{
											OFFSET -4.52789 0.00000 0.00000
											CHANNELS 3 Zrotation Xrotation Yrotation
											JOINT RightHandThumb3
											{
												OFFSET -2.46976 0.00000 0.00000
												CHANNELS 3 Zrotation Xrotation Yrotation
												End site
												{
													OFFSET 0.00000 0.00000 0.00000
												}
											}
										}
									}
									JOINT RightHandIndex1
									{
										OFFSET -14.26970 0.00000 2.88139
										CHANNELS 3 Zrotation Xrotation Yrotation
										JOINT RightHandIndex2
										{
											OFFSET -5.48836 0.00000 0.00000
											CHANNELS 3 Zrotation Xrotation Yrotation
											JOINT RightHandIndex3
											{
												OFFSET -3.01859 0.00000 0.00000
												CHANNELS 3 Zrotation Xrotation Yrotation
												End site
												{
													OFFSET 0.00000 0.00000 0.00000
												}
											}
										}
									}
									JOINT RightHandMiddle1
									{
										OFFSET -14.26970 0.00000 -0.09147
										CHANNELS 3 Zrotation Xrotation Yrotation
										JOINT RightHandMiddle2
										{
											OFFSET -6.17441 0.00000 0.00000
											CHANNELS 3 Zrotation Xrotation Yrotation
											JOINT RightHandMiddle3
											{
												OFFSET -3.56743 0.00000 0.00000
												CHANNELS 3 Zrotation Xrotation Yrotation
												End site
												{
													OFFSET 0.00000 0.00000 0.00000
												}
											}
										}
									}
									JOINT RightHandRing1
									{
										OFFSET -12.69180 0.00000 -3.06433
										CHANNELS 3 Zrotation Xrotation Yrotation
										JOINT RightHandRing2
										{
											OFFSET -5.62556 0.00000 0.00000
											CHANNELS 3 Zrotation Xrotation Yrotation
											JOINT RightHandRing3
											{
												OFFSET -3.56744 0.00000 0.00000
												CHANNELS 3 Zrotation Xrotation Yrotation
												End site
												{
													OFFSET 0.00000 0.00000 0.00000
												}
											}
										}
									}
									JOINT RightHandPinky1
									{
										OFFSET -11.11390 0.00000 -6.03719
										CHANNELS 3 Zrotation Xrotation Yrotation
										JOINT RightHandPinky2
										{
											OFFSET -4.52789 0.00000 0.00000
											CHANNELS 3 Zrotation Xrotation Yrotation
											JOINT RightHandPinky3
											{
												OFFSET -2.46976 0.00000 0.00000
												CHANNELS 3 Zrotation Xrotation Yrotation
												End site
												{
													OFFSET 0.00000 0.00000 0.00000
												}
											}
										}
									}
								}
							}
						}
					}
					JOINT LeftShoulder
					{
						OFFSET 0.01000 7.91373 5.19711
						CHANNELS 3 Zrotation Xrotation Yrotation
						JOINT LeftArm
						{
							OFFSET 18.41580 0.00000 0.00000
							CHANNELS 3 Zrotation Xrotation Yrotation
							JOINT LeftForeArm
							{
								OFFSET 29.11090 0.00000 0.00000
								CHANNELS 3 Zrotation Xrotation Yrotation
								JOINT LeftHand
								{
									OFFSET 24.65040 0.00000 0.00000
									CHANNELS 3 Zrotation Xrotation Yrotation
									JOINT LeftHandThumb1
									{
										OFFSET 5.35114 -0.85590 3.97906
										CHANNELS 3 Zrotation Xrotation Yrotation
										JOINT LeftHandThumb2
										{
											OFFSET 4.52789 0.00000 0.00000
											CHANNELS 3 Zrotation Xrotation Yrotation
											JOINT LeftHandThumb3
											{
												OFFSET 2.46977 0.00000 0.00000
												CHANNELS 3 Zrotation Xrotation Yrotation
												End site
												{
													OFFSET 0.00000 0.00000 0.00000
												}
											}
										}
									}
									JOINT LeftHandIndex1
									{
										OFFSET 14.26970 0.00000 2.88139
										CHANNELS 3 Zrotation Xrotation Yrotation
										JOINT LeftHandIndex2
										{
											OFFSET 5.48836 0.00000 0.00000
											CHANNELS 3 Zrotation Xrotation Yrotation
											JOINT LeftHandIndex3
											{
												OFFSET 3.01859 0.00000 0.00000
												CHANNELS 3 Zrotation Xrotation Yrotation
												End site
												{
													OFFSET 0.00000 0.00000 0.00000
												}
											}
										}
									}
									JOINT LeftHandMiddle1
									{
										OFFSET 14.26970 0.00000 -0.09147
										CHANNELS 3 Zrotation Xrotation Yrotation
										JOINT LeftHandMiddle2
										{
											OFFSET 6.17440 0.00000 0.00000
											CHANNELS 3 Zrotation Xrotation Yrotation
											JOINT LeftHandMiddle3
											{
												OFFSET 3.56744 0.00000 0.00000
												CHANNELS 3 Zrotation Xrotation Yrotation
												End site
												{
													OFFSET 0.00000 0.00000 0.00000
												}
											}
										}
									}
									JOINT LeftHandRing1
									{
										OFFSET 12.69180 0.00000 -3.06433
										CHANNELS 3 Zrotation Xrotation Yrotation
										JOINT LeftHandRing2
										{
											OFFSET 5.62556 0.00000 0.00000
											CHANNELS 3 Zrotation Xrotation Yrotation
											JOINT LeftHandRing3
											{
												OFFSET 3.56744 0.00000 0.00000
												CHANNELS 3 Zrotation Xrotation Yrotation
												End site
												{
													OFFSET 0.00000 0.00000 0.00000
												}
											}
										}
									}
									JOINT LeftHandPinky1
									{
										OFFSET 11.11390 0.00000 -6.03719
										CHANNELS 3 Zrotation Xrotation Yrotation
										JOINT LeftHandPinky2
										{
											OFFSET 4.52789 0.00000 0.00000
											CHANNELS 3 Zrotation Xrotation Yrotation
											JOINT LeftHandPinky3
											{
												OFFSET 2.46976 0.00000 0.00000
												CHANNELS 3 Zrotation Xrotation Yrotation
												End site
												{
													OFFSET 0.00000 0.00000 0.00000
												}
											}
										}
									}
								}
							}
						}
					}
					JOINT pCube4
					{
						OFFSET 0.00000 10.91090 1.10792
						CHANNELS 3 Zrotation Xrotation Yrotation
						End site
						{
							OFFSET 0.00000 0.00000 0.00000
						}
					}
				}
			}
		}
	}
	JOINT RightUpLeg
	{
		OFFSET -9.98441 0.00000 0.00000
		CHANNELS 3 Zrotation Xrotation Yrotation
		JOINT RightLeg
		{
			OFFSET 0.00000 -42.11790 0.00000
			CHANNELS 3 Zrotation Xrotation Yrotation
			JOINT RightFoot
			{
				OFFSET 0.00000 -45.00020 -0.00001
				CHANNELS 3 Zrotation Xrotation Yrotation
				JOINT RightForeFoot
				{
					OFFSET 0.00000 -3.74820 0.00000
					CHANNELS 3 Zrotation Xrotation Yrotation
					JOINT RightToeBase
					{
						OFFSET 0.00000 0.06325 14.43120
						CHANNELS 3 Zrotation Xrotation Yrotation
						End site
						{
							OFFSET 0.00000 0.00000 0.00000
						}
					}
				}
			}
		}
	}
	JOINT LeftUpLeg
	{
		OFFSET 9.98441 0.00000 0.00000
		CHANNELS 3 Zrotation Xrotation Yrotation
		JOINT LeftLeg
		{
			OFFSET 0.00000 -42.11800 0.00000
			CHANNELS 3 Zrotation Xrotation Yrotation
			JOINT LeftFoot
			{
				OFFSET 0.00000 -45.00070 0.00000
				CHANNELS 3 Zrotation Xrotation Yrotation
				JOINT LeftForeFoot
				{
					OFFSET 0.00000 -3.74824 0.00000
					CHANNELS 3 Zrotation Xrotation Yrotation
					JOINT LeftToeBase
					{
						OFFSET 0.00000 0.06325 14.43110
						CHANNELS 3 Zrotation Xrotation Yrotation
						End site
						{
							OFFSET 0.00000 0.00000 0.00000
						}
					}
				}
			}
		}
	}
}
MOTION
Frames: 4
Frame Time: 0.050000
0.04412379199198455 0.014097667033852974 0.019542997454153083 0.02339273938143854 -0.018611028125731947 -0.0036717337596294123 -2.486256638125994 -0.35872757627563717 -0.8926670542731087 -0.7918973783181311 3.508941540678721 0.2899313493888611 -1.0640795223084538 -2.255751591106678 -2.2756742233425284 0.27557339968268524 0.07710286784356939 -1.0097103438670498 -0.05743531673020883 13.057497714746074 0.0363187248289549 0.24597632554205953 0.4292274471320754 -0.33019910805914604 0.16392149901268152 -14.081840579199987 -0.026776625034798884 -4.182714040253575 1.5686664774587518 -14.491018934048487 69.31489676766252 9.459831869743985 9.97509546981115 50.44959763471842 4.801065605759731 94.57392514128921 25.259951050231226 -0.2904832644337521 -4.997558705862988 4.566179459738199 -0.1275106550120126 -1.6378777697976938 0.03279228800064268 -0.03393137191529412 -56.2673419475364 0.025974421214681218 0.010398370839449765 -56.28168500995443 -38.72954769237454 -0.024766478827885213 -0.014930643961934421 -0.002836768421916061 -0.04132882714050529 -0.02847441462724188 0.04562696698209368 0.031129930316977972 -0.024184946958720702 -36.66532529493803 0.033273617015144884 -0.026823434938252646 0.010472684563166582 -0.023824389871951356 -0.01211360868687102 0.041397924461990525 0.02753911080742683 0.011918946054788408 -19.710428958920037 -0.03059355439348121 -0.030250185865202037 0.04057208146721213 -0.008374311722222767 0.021542765715847362 -0.00543973042507823 0.012037622980107777 -0.015538659815086005 24.053659491931338 0.01980480726226532 0.009078297833765644 28.854118050874273 -0.03632811503466351 0.03573512117336527 28.86835974338913 -0.01693064179786888 0.0122735047260305 6.939394179646623 1.6527378030774282 11.877987936768504 -69.33767869201093 14.09708084262082 -15.113725756700095 -75.19240014265414 0.39782397878700904 -96.59790446592149 -17.456133662706094 -2.1162095674269286 -0.06248689873249835 -0.4477535586585881 0.08286942141899938 -8.135241154626149 0.0007530151590258531 -0.0444701362837325 44.55885863135184 0.03389059679906025 -0.03751360055739407 44.58849108813355 12.472710452774272 0.03858510996240998 -0.026433157915821934 -0.018221898587289457 0.004842061562260102 -0.0012134646446598236 0.012162382439981287 -0.015821168436738545 0.030082056001268866 11.120184225904396 0.008559988396914481 0.03932123119137392 0.040450730263826264 -0.02896217990076473 -0.023737474973418646 0.0028133037615185484 0.0018975491976406514 -0.017155538507416045 4.792929513977455 -0.002802434381807817 -0.00966901566445675 0.005345230827792746 0.007947160872422516 0.005482554901490474 -0.012608582597853291 0.016345509645930262 -0.03327195069621778 -5.632840080736117 0.015966867753892368 0.027689463943469956 -6.702707481522881 -0.009285051374045408 -0.011601042279180521 -6.678447982414015 0.04036818157130731 -0.0204302930302098 0.03421747258967102 0.014745994423042915 -0.044491082457208495 8.079115957323788 3.520288307049945 -19.250338005487425 -0.045672513681068574 10.41785740263738 0.04474724559307395 -5.632918287676293 -15.677512453738512 3.2006418287476865 -0.0349607518772499 0.03658345244409567 0.008965023294194003 0.04631018477439924 4.70699203707775 0.04152171263095823 12.43280388615518 -8.25561630764308 6.86251287979431 -0.035053225005801214 46.412432849986196 0.02760456012211581 -4.303169803067245 -14.721457183742205 -3.7905143604253135 0.049393362768949844 0.010518860252485971 -0.0026523228221195564 -0.014660739372652911 -10.754741780717483 0.037441276715022016 
-0.047063124507653986 -0.013465181815417096 0.015543404499635228 -0.03094968293101477 0.04669900075252677 -0.02067005625764755 -2.5094244924776246 -0.40306217645923836 -0.9252812167265265 -0.7499934683681395 3.502964129905563 0.27022799133396236 -1.0694133502376488 -2.32156546687109 -2.228543577854209 0.3173928816127404 -0.008406550314137586 -1.018834776115429 -0.04229036405547185 12.93227381069998 0.12567108677047317 0.23441947001780386 0.3950523117577612 -0.2731062206491639 0.16038251294042916 -14.165621198841404 0.028091204767859684 -4.063394003717058 1.5662910354744124 -14.598029294437499 69.63224934545374 10.666324358740436 8.668169008661925 50.51975943908014 5.446879092780064 94.0442955665412 25.179038942906033 -0.32372477957708595 -4.9949578374551225 4.564345572059928 -0.17252384228645 -1.5953317658477246 -0.0436639756245353 0.033012096658653754 -56.277787243344974 -0.02498776968520419 -0.03859703110479188 -56.243518779262935 -38.805241218196606 0.03992797120542571 -0.04049223536973872 -0.03216683738130085 0.04740973563616378 0.0253017794575 -0.023725369207354588 -0.002591874253861754 -0.023786164515220882 -36.72722887845781 -0.04827113875875411 0.04313801146732128 0.005291748876578842 0.023417772659525073 0.02318121131630516 0.018711525189415885 0.015327121492943074 0.04295451151139311 -19.799980914358958 -0.035397952477650645 0.017802187183906117 0.036072410963121915 -0.031610737061159494 -0.025052026009975456 -0.035842476636791784 -0.0252273908435831 -0.023648963501481084 24.00503898418083 0.008490008140891996 0.01822465380650737 28.8760877366925 0.037534191569043536 0.033185718406247684 28.832352122814598 0.044198943028037445 0.0363587899597679 6.871633489910624 1.5780556202701383 11.969236992280823 -70.05885315759345 14.239837291427659 -13.993660183538424 -78.2512215814977 0.8820528261145393 -97.7701508002757 -18.075360885086337 -2.0726206666160443 -0.12282761691468033 -0.45459988978970445 0.06422386521831058 -8.075664374657729 -0.013975170547899141 0.03364826072917759 44.59942114515292 0.03819269632433432 -0.0193777122630671 44.571554888745176 12.46807240845899 -0.04522204675063277 0.04499228355051836 0.038806060936021895 -0.044918512408566154 0.003696532193447145 -0.02718717655649335 -0.017331885957566028 -0.027036576200732132 11.076547116999095 -0.007363342474892981 0.04147474494535858 -0.024087135529728156 -0.0160152388396742 0.02592996233357491 -0.013261713639196426 0.007503691008227314 -0.02714520761951483 4.736002395234577 -0.008316832203470962 0.0289522140303058 0.038296416559667264 -0.04444227880615426 0.046328617834828244 0.04541798546392753 0.04903743364679845 -0.004870073367964462 -5.6434336438831965 -0.014096407730770462 0.032993354038872554 -6.71707322016812 -0.026300145981917565 -0.0328755858487594 -6.702597349482533 0.01218895762731415 -0.03278161818437349 -0.021476905096604253 0.0030648030427781097 0.010341038096180649 7.995755188481225 3.5435286199459637 -19.257853808041542 -0.042106187966406104 10.421944827027751 -0.028743953185316477 -5.648565138341315 -15.664616097361778 3.156554087821321 0.03161645736325019 -0.024963702749385717 -0.002710513706543509 -0.04745691945639803 4.735076407437718 0.023034433278783253 12.47416235587868 -8.213414292067865 6.920189524268439 -0.0466764063215528 46.36396309359636 0.015299746370404913 -4.311654380497805 -14.773539920989721 -3.830002832092006 0.004707294149103993 0.013786678703508108 -0.02925739437787817 0.010267968044992363 -10.735931411030746 0.011970599999769746 
-0.01678291375051051 -0.022192986827256206 -0.007172477622270153 0.0001565142447722757 -0.000885691663343639 0.010831910152168642 -2.601217658392594 -0.4707497375850836 -0.8875149895342527 -0.7352748934490738 3.5564652262669227 0.32292483391882315 -1.0842419060410495 -2.2213334788362955 -2.2222358559503395 0.24404261100107608 -0.029284065072504008 -0.964436199919917 -0.020260492265114925 12.840280870648987 0.06612686884780296 0.2116867150313117 0.32118896618291404 -0.3221275019839345 0.11771969544235891 -14.229940861433523 0.03456359342991413 -3.921111674627691 1.4950625331246894 -14.659798231375284 69.70815277230125 10.478164614913958 7.528303754706824 49.17731640052172 5.989590098843428 92.91230983636413 24.885913282922157 -0.3113498472122009 -4.930818555556575 4.5713619004335575 -0.16322517131518122 -1.5782612470508353 0.015538207676702527 0.001126605715952763 -56.21940659695178 0.04688220522598644 0.00045358546312743864 -56.22936938761804 -38.72866101963811 0.006675049082231614 -0.0009454454723903274 -0.0274013465259744 -0.01272520817157946 0.020265942801702193 -0.008453829758579588 0.03853432227198512 0.024431533620568695 -36.67111799122381 -0.009400668175542462 0.023674735198237627 -0.018816498583166183 0.002726670839241161 0.024334559471537294 -0.03443455331606439 -0.03308404129527946 -0.018924782535147816 -19.77647177659472 0.025105931512106494 -0.03716282182694481 -0.04225829105083804 -0.027736879565184988 0.013967500278958144 0.0016985278622618967 0.03207670316499691 -0.004410953079138454 24.02151689159497 -0.024890158896670702 0.0488416985994891 28.895293479474848 0.04511031528821791 0.030448965100734724 28.81590075756889 -0.03860132215567948 -0.004933224572764266 6.780839951285385 1.5896647131225998 11.998828259078625 -70.47486414842407 13.390980605137 -13.217648748710582 -78.90130674910135 0.9632047664349013 -98.08593014205326 -17.59268547575355 -1.8534360388556468 -0.4733386303630924 -0.4676828479558321 0.11403925890314959 -8.107114430369263 -0.04255911129140713 0.01824571243878031 44.55700627177088 0.02908314545709307 -0.003987901047783064 44.56894283050197 12.429440561096456 0.016614171498502157 -0.040708852893410294 -0.04610790788175934 -0.016798230500829698 0.007359085695274729 0.04349999837523362 0.008825505448853799 0.016802319108401343 11.108775460288363 -0.002502587124216355 -0.018130209494091956 0.008165449200953802 0.010416745403337795 -0.01703573553125808 0.0173262106318027 -0.028727447615681058 0.017276964213693423 4.775725062150462 0.04100655799269791 -0.003932651634921472 0.03489507473451821 0.002198099387525419 0.02901162448168591 -0.02157917762462351 -0.016589440677012787 0.017054501797628692 -5.589105262796197 -0.037073716947529346 0.009135299204658108 -6.679230397886828 -0.028142439668610335 -0.017443044796993993 -6.696123524901326 -0.00510631576615917 -0.013603517932004905 -0.039256059867131446 0.029055693623457574 -0.019948424593199714 7.995875306974979 3.4582162060047916 -19.21810864064099 -0.020999136109002472 10.39091697954133 0.049722770781666634 -5.650061478354126 -15.645203811816538 3.191694969552708 0.029457846635480713 0.031112303782927744 -0.035281381871999695 0.003057709097094711 4.661927016457803 -0.005338890526954291 12.508329423901733 -8.280897584249656 6.850276375165729 0.023862745118830977 46.387915501682215 -0.03516957616306141 -4.298828823916087 -14.757784827142789 -3.8757867516955873 0.006517409807272208 0.02733378406744763 0.016986206478596614 -0.015762551710752408 -10.71190997454271 0.02648392996455476 
0.03755725534682582 -0.01794275645852699 -0.035280135705415085 0.035321519020773566 0.01699116773175332 0.024391043409428124 -2.6412436559599066 -0.4692816210194666 -0.8981804783605117 -0.729058703671337 3.4810502753533323 0.313583486816392 -1.0594224353332484 -2.2075437642821942 -2.3154504560366314 0.2610069395596173 -0.04182376569207729 -1.010673751143832 -0.05255232468263986 12.658039183133805 0.04378702158646842 0.19938393178800792 0.23972117242529342 -0.36403299844686204 0.1263973961151501 -14.26890654021182 -0.031121777677183375 -3.789665082478458 1.4858792934331255 -14.721740677824132 69.73922743585447 9.928948734949632 6.612734453213101 47.81186514245382 6.484006564778545 91.91558016213823 24.803402627701992 -0.28247116966884755 -5.056678333231548 4.501321190779897 -0.1691885759030204 -1.5920575501762186 -0.015130167500781451 0.00356356457095591 -56.26995532757919 -0.0296469799634283 -0.04694653137188862 -56.21161348490608 -38.79746679499467 0.0026033440662878863 0.043970064496789384 0.041944565163792955 -0.02472569573700228 -0.0017587553566462764 0.01955018811077716 0.029327037421672864 0.029030193415507794 -36.69363046273283 0.026413115129862247 0.03671447798472268 -0.04197649213102047 0.02716114196897693 0.017694688832563244 -0.03522276016401524 0.04220725884982407 -0.023219574504672214 -19.74161828325131 -0.00019954573964264298 0.015932866557926154 0.03659649484940511 -0.028227620147545866 0.009721162771186521 0.004740781724973802 -5.4523588963881123e-05 -0.021675026237657085 24.004695406834987 -0.04582018334289835 -0.03491649731997418 28.880737706274722 0.029200492788771275 0.027530728717204928 28.844508128894077 -0.013408374636673234 -0.0034873541326949846 6.611456890597612 1.6446661780485454 12.108662158911894 -70.77867727480563 12.566127118246111 -12.538223932502616 -78.95586760736533 1.0443632303001693 -98.22339450339169 -17.157512362657766 -1.6371669426877475 -0.7684742723766806 -0.44918543543722517 0.03273624448255995 -8.144119269082534 -0.033676629707571605 -0.028848637096942926 44.52553097623132 -0.0077435344018005605 -0.03690804876612434 44.590207596689815 12.431143159630814 -0.03631463951494236 -0.036208672648019316 -0.03708075623298471 -0.013212125767617636 0.03947667037094979 -0.01599132136981092 0.03286065650919199 -0.0007952748131011423 11.138366275632134 -0.03599598255007751 -0.022002247517652073 -0.035572897481690305 -0.02670190329722342 0.006211986675349156 -0.03026155365570309 -0.007471360690471904 -0.019436522620755542 4.816777263676933 -0.023752626567830698 0.026068770720980766 -0.029723475334539548 0.0063679345402498115 -0.04188312631807078 0.02199366544161956 -0.027456570442722584 -0.0013837318794336759 -5.565678224153021 -0.0487286485577588 -0.015229250349848235 -6.7639995775394475 -0.03342988932220254 0.00966042054040842 -6.7087865830998075 -0.03862689272467313 0.03509976915672971 0.02931964491006241 0.04113182702176637 0.0008929948268028048 8.021806788879728 3.482374217834866 -19.255640743600306 -0.04152888649404359 10.357939871540209 -0.02664291381655978 -5.647690860665513 -15.65356531003698 3.229938212376823 0.020664235967498577 -0.0037017893395739593 0.026151637615703476 -0.019826848501743714 4.659183958386748 -0.012366665951098942 12.492392793091934 -8.207377538026428 6.873790116825024 -0.0034097447219733116 46.367474358329176 -0.03686890309221471 -4.348834512462704 -14.735263666611333 -3.789510182493893 -0.01877887109690755 -0.006634586094849654 0.015512514825531395 2.667904726609523e-05 -10.744644122104285 -0.032737344721823186 
